<svg width="60" height="60" viewBox="0 0 60 60" fill="none" xmlns="http://www.w3.org/2000/svg">
<g clip-path="url(#clip0_426_5468)">
<path d="M50.6632 36.8844C48.2197 34.4391 44.8292 33.4032 40.475 34.5701L24.9482 19.0275L25.1534 18.2515C26.0477 14.8962 25.0814 11.2895 22.6325 8.8406C20.139 6.3452 16.5942 5.42959 13.2418 6.35049C13.0069 6.41497 12.793 6.54001 12.6216 6.7131C12.4501 6.88619 12.3272 7.10126 12.2649 7.33679C12.2029 7.57227 12.2038 7.81991 12.2674 8.05497C12.331 8.29002 12.4552 8.50426 12.6276 8.67629L16.3662 12.4149C17.4592 13.5106 17.4485 15.2653 16.3689 16.3479C15.2978 17.4218 13.4974 17.4202 12.4305 16.3505L8.6912 12.6109C8.5189 12.4385 8.30433 12.3145 8.06898 12.2511C7.83363 12.1878 7.58577 12.1873 7.35021 12.2499C7.11475 12.3126 6.89987 12.436 6.72708 12.6078C6.5543 12.7796 6.42967 12.9937 6.36567 13.2288C5.45823 16.5444 6.35092 20.1112 8.85634 22.6166C11.2988 25.0608 14.685 26.1005 19.0419 24.931L34.5699 40.4736C33.4111 44.8266 34.4107 48.1842 36.887 50.6605C39.3836 53.159 42.93 54.0678 46.2752 53.15C46.5101 53.0855 46.724 52.9605 46.8955 52.7874C47.067 52.6143 47.19 52.3992 47.2523 52.1637C47.3144 51.9282 47.3135 51.6805 47.2499 51.4454C47.1863 51.2103 47.062 50.996 46.8896 50.824L43.1519 47.0862C42.0589 45.9906 42.0695 44.2356 43.1492 43.1533C44.2336 42.0744 46.03 42.0915 47.0875 43.1519L50.8271 46.8905C50.9995 47.0628 51.214 47.1868 51.4493 47.2501C51.6847 47.3134 51.9325 47.3139 52.168 47.2513C52.4034 47.1886 52.6183 47.0653 52.791 46.8935C52.9638 46.7217 53.0884 46.5076 53.1525 46.2726C54.0599 42.9575 53.1674 39.3898 50.6632 36.8844Z" fill="#F5491F"/>
<path d="M20.8945 30.7326L7.62829 44.0005C5.45724 46.1716 5.45724 49.7021 7.62829 51.873C9.79934 54.0441 13.3298 54.0441 15.5008 51.873L28.7668 38.6055L20.8945 30.7326ZM14.1934 47.5542C13.6497 48.0979 12.7693 48.0979 12.2256 47.5542C11.682 47.0107 11.682 46.13 12.2256 45.5864L20.6664 37.1441C21.21 36.6005 22.0907 36.6005 22.6342 37.1441C23.1777 37.6877 23.1777 38.5683 22.6342 39.1119L14.1934 47.5542ZM53.092 8.80676L50.6929 6.40766C50.4735 6.18822 50.187 6.04841 49.879 6.01045C49.571 5.97249 49.2592 6.03857 48.9931 6.19817L41.613 10.6257C40.8365 11.0916 40.7046 12.1628 41.3448 12.8031L41.9323 13.3904L32.5637 22.7206L36.5007 26.6575L45.8692 17.3273L46.6967 18.155C47.3369 18.795 48.4083 18.6633 48.874 17.8868L53.3016 10.5067C53.4611 10.2405 53.5272 9.92867 53.4892 9.62068C53.4512 9.31268 53.3114 9.02621 53.092 8.80676Z" fill="#F5491F"/>
</g>
<defs>
<clipPath id="clip0_426_5468">
<rect width="60" height="60" fill="white"/>
</clipPath>
</defs>
</svg>
