<svg width="60" height="60" viewBox="0 0 60 60" fill="none" xmlns="http://www.w3.org/2000/svg">
<g clip-path="url(#clip0_426_5472)">
<path d="M28.2633 34.2223L30.3093 32.1758L25.6758 29.5879L28.2633 34.2223Z" fill="#F5491F"/>
<path d="M51.2888 3H39.025C36.3329 3 32.7324 4.49125 30.8292 6.395L5.66764 31.5561C4.5919 32.6313 4 34.0652 4 35.5941C4 37.123 4.59242 38.5568 5.66764 39.632L20.3675 54.3324C21.4428 55.4076 22.8771 56 24.4055 56C25.9344 56 27.3682 55.4076 28.4439 54.3324L53.605 29.1708C55.5087 27.2676 57 23.6671 57 20.975V8.71044C56.9996 5.56149 54.4376 3 51.2888 3ZM25.9474 42.8895C24.4068 44.4305 22.4545 44.8305 21.7723 44.1483C21.4431 43.8187 21.2547 43.0189 21.6195 42.6541C22.1015 42.1726 23.3247 42.7601 24.5244 41.5608C25.23 40.8548 25.524 39.926 24.8183 39.2203C23.0541 37.4561 19.8201 41.7723 17.0324 38.985C15.2804 37.2325 16.1857 35.1274 17.5383 33.7749C18.2322 33.081 19.9374 31.705 20.7137 32.4814C20.9842 32.7515 21.3372 33.4809 20.9139 33.9043C20.5491 34.2687 19.8318 34.0923 18.8436 35.0802C17.9973 35.9273 17.8561 36.7505 18.4207 37.3146C19.8788 38.7736 23.1483 34.4922 26.1944 37.5382C27.8761 39.2199 27.5704 41.2668 25.9474 42.8895ZM34.6733 33.952C34.415 34.2108 34.1328 34.3281 33.8501 34.1639L31.8393 33.0462L29.1458 35.7397L30.2635 37.7505C30.4281 38.0328 30.31 38.3154 30.0513 38.5738C29.6399 38.9854 28.8284 39.2794 28.4519 38.9034C28.4284 38.8796 28.3929 38.8209 28.3577 38.7623L23.2301 29.0948C22.983 28.6359 23.2539 28.0359 23.689 27.6011C24.1359 27.1543 24.7355 26.8834 25.1941 27.1304L34.8618 32.2582C34.9204 32.2937 34.9677 32.3172 35.0026 32.3524C35.3673 32.7167 35.0853 33.5403 34.6733 33.952ZM40.8475 27.7774L37.1193 31.506C36.778 31.8473 36.2843 32.0119 35.9666 31.694L28.3221 24.0497C27.9925 23.7201 28.2283 23.2025 28.6161 22.8143C28.9926 22.4383 29.5219 22.1912 29.8511 22.5204L36.6369 29.3067L39.5067 26.437C39.8128 26.1309 40.2948 26.3076 40.636 26.6489C40.9652 26.978 41.1532 27.4721 40.8475 27.7774ZM46.9982 21.6271L42.8115 25.8139C42.4702 26.1551 41.9765 26.3197 41.6587 26.0019L34.026 18.3693C33.7082 18.0518 33.8727 17.5577 34.214 17.2168L38.4007 13.0296C38.7303 12.7004 39.224 12.889 39.5419 13.2064C39.9063 13.5711 40.0472 14.0649 39.7417 14.371L36.4129 17.6988L38.7655 20.051L40.5532 18.2637C40.8588 17.958 41.3296 18.0757 41.647 18.3927C41.9175 18.6632 42.0821 19.1338 41.7526 19.463L39.9648 21.2507L42.3287 23.6146L45.657 20.2863C45.9631 19.9806 46.4571 20.1217 46.8215 20.4865C47.1393 20.8039 47.3274 21.2979 46.9982 21.6271ZM48.3123 13.9727C48.0202 14.2627 47.6257 14.4259 47.214 14.4271C46.8027 14.426 46.4084 14.2627 46.1168 13.9727C45.8259 13.6811 45.6621 13.2862 45.6613 12.8744C45.6624 12.4628 45.8261 12.0684 46.1168 11.7771C46.4084 11.4871 46.8027 11.3239 47.214 11.3229C47.6229 11.3229 48.0232 11.4883 48.3123 11.777C48.6023 12.0688 48.7656 12.4631 48.7668 12.8745C48.7668 13.2837 48.6012 13.684 48.3123 13.9727Z" fill="#F5491F"/>
</g>
<defs>
<clipPath id="clip0_426_5472">
<rect width="60" height="60" fill="white"/>
</clipPath>
</defs>
</svg>
