<svg width="60" height="60" viewBox="0 0 60 60" fill="none" xmlns="http://www.w3.org/2000/svg">
<g clip-path="url(#clip0_426_5464)">
<path d="M44.0146 38.7476C43.5777 35.7786 42.091 33.0646 39.8244 31.098C37.5577 29.1313 34.6612 28.0422 31.6603 28.0283H28.8635C25.8626 28.0422 22.9661 29.1313 20.6995 31.098C18.4328 33.0646 16.9462 35.7786 16.5093 38.7476L15.1687 48.1211C15.1259 48.424 15.1542 48.7329 15.2513 49.023C15.3485 49.3132 15.5119 49.5767 15.7286 49.7928C16.2543 50.3185 19.4795 52.9997 30.2646 52.9997C41.0496 52.9997 44.267 50.3291 44.8006 49.7928C45.0172 49.5767 45.1806 49.3132 45.2778 49.023C45.375 48.7329 45.4033 48.424 45.3605 48.1211L44.0146 38.7476ZM18.5885 29.474C16.048 31.8159 14.3951 34.9639 13.9096 38.3848L12.937 45.114C5.13018 45.0614 2.76447 42.2225 2.37018 41.6443C2.21777 41.4342 2.10901 41.1957 2.05032 40.9429C1.99163 40.69 1.9842 40.428 2.02847 40.1723L2.60675 36.9128C2.90804 35.2094 3.61565 33.6037 4.66958 32.2319C5.72351 30.8602 7.09268 29.7628 8.661 29.0328C10.2293 28.3028 11.9505 27.9617 13.6787 28.0385C15.4069 28.1153 17.0911 28.6077 18.5885 29.474ZM58.4902 40.1723C58.5344 40.428 58.527 40.69 58.4683 40.9429C58.4096 41.1957 58.3009 41.4342 58.1484 41.6443C57.7542 42.2225 55.3885 45.0614 47.5816 45.114L46.609 38.3848C46.1235 34.9639 44.4706 31.8159 41.9302 29.474C43.4275 28.6077 45.1117 28.1153 46.8399 28.0385C48.5681 27.9617 50.2893 28.3028 51.8576 29.0328C53.4259 29.7628 54.7951 30.8602 55.849 32.2319C56.903 33.6037 57.6106 35.2094 57.9119 36.9128L58.4902 40.1723ZM19.0353 23.6911C18.3736 24.6295 17.4953 25.3943 16.4748 25.9206C15.4543 26.4469 14.3218 26.719 13.1736 26.714C12.0282 26.714 10.8992 26.4418 9.87969 25.9199C8.86013 25.3979 7.9792 24.6412 7.30948 23.712C6.63977 22.7828 6.20044 21.7078 6.02771 20.5755C5.85498 19.4433 5.95378 18.2861 6.31598 17.1995C6.67818 16.1129 7.29341 15.128 8.11097 14.3258C8.92852 13.5236 9.925 12.9272 11.0183 12.5856C12.1116 12.2441 13.2703 12.1673 14.3991 12.3615C15.5279 12.5557 16.5944 13.0153 17.5107 13.7026C17.2472 14.7332 17.1147 15.793 17.1165 16.8568C17.1185 19.2676 17.7822 21.6316 19.0353 23.6911ZM54.5736 19.4854C54.5743 20.4349 54.3878 21.3752 54.0248 22.2525C53.6617 23.1298 53.1293 23.9269 52.4579 24.5983C51.7866 25.2697 50.9894 25.8021 50.1121 26.1651C49.2348 26.5282 48.2945 26.7147 47.345 26.714C46.1968 26.719 45.0644 26.4469 44.0439 25.9206C43.0234 25.3943 42.145 24.6295 41.4833 23.6911C42.7364 21.6316 43.4002 19.2676 43.4022 16.8568C43.4039 15.793 43.2714 14.7332 43.0079 13.7026C44.0818 12.8971 45.3588 12.4066 46.6959 12.286C48.0329 12.1655 49.377 12.4196 50.5777 13.02C51.7784 13.6203 52.7883 14.5432 53.494 15.6851C54.1998 16.8271 54.5736 18.143 54.5736 19.4854Z" fill="#F5491F"/>
<path d="M30.2595 26.7143C35.7034 26.7143 40.1166 22.3011 40.1166 16.8571C40.1166 11.4132 35.7034 7 30.2595 7C24.8155 7 20.4023 11.4132 20.4023 16.8571C20.4023 22.3011 24.8155 26.7143 30.2595 26.7143Z" fill="#F5491F"/>
</g>
<defs>
<clipPath id="clip0_426_5464">
<rect width="60" height="60" fill="white"/>
</clipPath>
</defs>
</svg>
