<svg width="60" height="60" viewBox="0 0 60 60" fill="none" xmlns="http://www.w3.org/2000/svg">
<g clip-path="url(#clip0_426_5451)">
<path d="M30.5 8C26.2477 8 22.0909 9.26095 18.5552 11.6234C15.0196 13.9859 12.2639 17.3437 10.6366 21.2723C9.00932 25.2009 8.58354 29.5238 9.41313 33.6944C10.2427 37.865 12.2904 41.696 15.2972 44.7028C18.304 47.7096 22.135 49.7573 26.3056 50.5869C30.4762 51.4165 34.7991 50.9907 38.7277 49.3634C42.6563 47.7361 46.0141 44.9804 48.3766 41.4448C50.739 37.9091 52 33.7523 52 29.5C51.9933 23.7999 49.7259 18.3352 45.6954 14.3046C41.6648 10.2741 36.2001 8.00672 30.5 8ZM37.7455 36.7455C37.379 37.1119 36.8819 37.3178 36.3636 37.3178C35.8454 37.3178 35.3483 37.1119 34.9818 36.7455L29.1181 30.8819C28.7516 30.5154 28.5456 30.0183 28.5455 29.5V17.7727C28.5455 17.2543 28.7514 16.7572 29.1179 16.3907C29.4845 16.0241 29.9816 15.8182 30.5 15.8182C31.0184 15.8182 31.5155 16.0241 31.8821 16.3907C32.2486 16.7572 32.4545 17.2543 32.4545 17.7727V28.6908L37.7455 33.9818C38.1119 34.3483 38.3178 34.8454 38.3178 35.3636C38.3178 35.8819 38.1119 36.379 37.7455 36.7455Z" fill="#F5491F"/>
</g>
<defs>
<clipPath id="clip0_426_5451">
<rect width="60" height="60" fill="white"/>
</clipPath>
</defs>
</svg>
