<svg width="24" height="24" viewBox="0 0 24 24" fill="none" xmlns="http://www.w3.org/2000/svg">
<path d="M4 16C3.71667 16 3.47934 15.904 3.288 15.712C3.09667 15.52 3.00067 15.2827 3 15C2.99934 14.7173 3.09534 14.48 3.288 14.288C3.48067 14.096 3.718 14 4 14H20C20.2833 14 20.521 14.096 20.713 14.288C20.905 14.48 21.0007 14.7173 21 15C20.9993 15.2827 20.9033 15.5203 20.712 15.713C20.5207 15.9057 20.2833 16.0013 20 16H4ZM4 10C3.71667 10 3.47934 9.904 3.288 9.712C3.09667 9.52 3.00067 9.28267 3 9C2.99934 8.71733 3.09534 8.48 3.288 8.288C3.48067 8.096 3.718 8 4 8H20C20.2833 8 20.521 8.096 20.713 8.288C20.905 8.48 21.0007 8.71733 21 9C20.9993 9.28267 20.9033 9.52033 20.712 9.713C20.5207 9.90567 20.2833 10.0013 20 10H4Z" fill="white"/>
</svg>
