<svg width="24" height="24" viewBox="0 0 24 24" fill="none" xmlns="http://www.w3.org/2000/svg">
<rect width="24" height="24" rx="8" fill="white"/>
<path d="M7.5 15.75V8.45C7.5 8.18333 7.59167 7.95833 7.775 7.775C7.95833 7.59167 8.18333 7.5 8.45 7.5H8.875C9.075 7.5 9.25633 7.55417 9.419 7.6625C9.58167 7.77083 9.69617 7.92083 9.7625 8.1125L12 14.025L14.2 8.1625C14.275 7.9625 14.4 7.802 14.575 7.681C14.75 7.56 14.9458 7.49967 15.1625 7.5H15.475C15.7583 7.5 16 7.6 16.2 7.8C16.4 8 16.5 8.24167 16.5 8.525V15.75C16.5 15.9583 16.4272 16.1355 16.2815 16.2815C16.1358 16.4275 15.9587 16.5003 15.75 16.5C15.5413 16.4997 15.3643 16.4268 15.219 16.2815C15.0737 16.1362 15.0007 15.959 15 15.75V10.375L12.7875 16.1125C12.7458 16.2292 12.675 16.323 12.575 16.394C12.475 16.465 12.3625 16.5003 12.2375 16.5H11.7625C11.6375 16.5 11.525 16.4645 11.425 16.3935C11.325 16.3225 11.2542 16.2288 11.2125 16.1125L9 10.4125V15.75C9 15.9583 8.92717 16.1355 8.7815 16.2815C8.63583 16.4275 8.45867 16.5003 8.25 16.5C8.04133 16.4997 7.86433 16.4268 7.719 16.2815C7.57367 16.1362 7.50067 15.959 7.5 15.75Z" fill="#F5491F"/>
</svg>
