<svg width="36" height="36" viewBox="0 0 36 36" fill="none" xmlns="http://www.w3.org/2000/svg">
<path fill-rule="evenodd" clip-rule="evenodd" d="M0 28V8C0 3.58172 3.58172 0 8 0H28C32.4183 0 36 3.58172 36 8V28C36 32.4183 32.4183 36 28 36H8C3.58172 36 0 32.4183 0 28ZM26.5537 12.0458C27.1252 12.6484 27.3107 14.0208 27.3107 14.0208C27.3107 14.0208 27.5 15.6343 27.5 17.2438V18.7523C27.5 20.3657 27.3107 21.9753 27.3107 21.9753C27.3107 21.9753 27.1252 23.3477 26.5537 23.9503C25.9017 24.665 25.1803 24.7388 24.7725 24.7806C24.7277 24.7851 24.6867 24.7893 24.65 24.7939C21.993 24.9922 18 25 18 25C18 25 13.0607 24.9533 11.5393 24.8017C11.4653 24.7868 11.3751 24.7752 11.2729 24.7622C10.7908 24.7006 10.0396 24.6047 9.44258 23.9503C8.8748 23.3477 8.68926 21.9753 8.68926 21.9753C8.68926 21.9753 8.5 20.3618 8.5 18.7523V17.2438C8.5 15.6343 8.69297 14.0208 8.69297 14.0208C8.69297 14.0208 8.8748 12.6484 9.44629 12.0458C10.0983 11.3312 10.8197 11.2573 11.2275 11.2156C11.2611 11.2121 11.2926 11.2089 11.3217 11.2056C11.3265 11.205 11.3312 11.2045 11.3359 11.2039C11.3407 11.2033 11.3454 11.2027 11.35 11.2022C14.007 11 17.9963 11 17.9963 11H18.0037C18.0037 11 21.993 11 24.65 11.2022C24.6867 11.2068 24.7277 11.211 24.7725 11.2156C25.1803 11.2573 25.9017 11.3312 26.5537 12.0458Z" fill="#D7D7D7"/>
<path fill-rule="evenodd" clip-rule="evenodd" d="M11.3217 11.2056C11.3265 11.205 11.3312 11.2045 11.3359 11.2039L11.3217 11.2056ZM16.0369 20.5835V14.9889L21.1691 17.7959L16.0369 20.5835Z" fill="#D7D7D7"/>
</svg>
