<svg width="36" height="36" viewBox="0 0 36 36" fill="none" xmlns="http://www.w3.org/2000/svg">
<path fill-rule="evenodd" clip-rule="evenodd" d="M0 28V8C0 3.58172 3.58172 0 8 0H28C32.4183 0 36 3.58172 36 8V28C36 32.4183 32.4183 36 28 36H8C3.58172 36 0 32.4183 0 28ZM21.8626 16.0284L21.3889 19.0381H18.9447V26.3176H15.6621V19.0381H13V16.0284H15.6621V13.7336C15.6621 11.1237 17.23 9.68 19.6316 9.68C20.425 9.6897 21.2166 9.75728 22 9.88221V12.4451H20.6547C19.3521 12.4451 18.9447 13.2492 18.9447 14.0722V16.0284H21.8626Z" fill="#D7D7D7"/>
</svg>
