<svg width="36" height="36" viewBox="0 0 36 36" fill="none" xmlns="http://www.w3.org/2000/svg">
<rect width="36" height="36" rx="8" fill="#222223"/>
<path fill-rule="evenodd" clip-rule="evenodd" d="M27.8107 14.0208C27.8107 14.0208 27.6252 12.6484 27.0537 12.0458C26.3301 11.2527 25.5211 11.2488 25.15 11.2022C22.493 11 18.5037 11 18.5037 11H18.4963C18.4963 11 14.507 11 11.85 11.2022C11.4789 11.2488 10.6699 11.2527 9.94629 12.0458C9.3748 12.6484 9.19297 14.0208 9.19297 14.0208C9.19297 14.0208 9 15.6343 9 17.2438V18.7523C9 20.3618 9.18926 21.9753 9.18926 21.9753C9.18926 21.9753 9.3748 23.3477 9.94258 23.9503C10.6662 24.7434 11.6162 24.7162 12.0393 24.8017C13.5607 24.9533 18.5 25 18.5 25C18.5 25 22.493 24.9922 25.15 24.7939C25.5211 24.7473 26.3301 24.7434 27.0537 23.9503C27.6252 23.3477 27.8107 21.9753 27.8107 21.9753C27.8107 21.9753 28 20.3657 28 18.7523V17.2438C28 15.6343 27.8107 14.0208 27.8107 14.0208ZM16.5369 14.9889V20.5834L21.6691 17.7959L16.5369 14.9889Z" fill="white"/>
</svg>
