<svg width="36" height="36" viewBox="0 0 36 36" fill="none" xmlns="http://www.w3.org/2000/svg">
<rect width="36" height="36" rx="8" fill="#222223"/>
<path fill-rule="evenodd" clip-rule="evenodd" d="M18.0059 9C15.2894 9 14.9494 9.01113 13.8824 9.05567C12.8192 9.10021 12.0883 9.26353 11.4551 9.49736C10.7946 9.74233 10.2357 10.0652 9.68067 10.596C9.12175 11.1231 8.78171 11.6538 8.52374 12.2774C8.27751 12.8824 8.10553 13.5728 8.05863 14.5823C8.01173 15.5993 8 15.9223 8 18.5019C8 21.0815 8.01173 21.4044 8.05863 22.4177C8.10553 23.4272 8.27751 24.1213 8.52374 24.7226C8.78171 25.3499 9.12175 25.8806 9.68067 26.4077C10.2357 26.9348 10.7946 27.2614 11.4512 27.5026C12.0883 27.7365 12.8153 27.8998 13.8784 27.9443C14.9455 27.9889 15.2855 28 18.002 28C20.7184 28 21.0584 27.9889 22.1255 27.9443C23.1886 27.8998 23.9195 27.7365 24.5527 27.5026C25.2093 27.2614 25.7682 26.9348 26.3232 26.4077C26.8782 25.8806 27.2222 25.3499 27.4763 24.7263C27.7225 24.1213 27.8945 23.4309 27.9414 22.4214C27.9883 21.4081 28 21.0852 28 18.5056C28 15.926 27.9883 15.603 27.9414 14.5898C27.8945 13.5802 27.7225 12.8861 27.4763 12.2848C27.23 11.6538 26.89 11.1231 26.3311 10.596C25.776 10.069 25.2171 9.74233 24.5605 9.50107C23.9234 9.26724 23.1964 9.10393 22.1333 9.05939C21.0623 9.01113 20.7223 9 18.0059 9ZM22.0473 10.7668C20.9959 10.7222 20.6793 10.7111 18.0059 10.7111C15.3324 10.7111 15.0158 10.7222 13.9644 10.7668C12.9912 10.8076 12.4596 10.9635 12.1079 11.0934C11.6428 11.2641 11.3105 11.4683 10.9588 11.8023C10.6109 12.1326 10.392 12.4518 10.2122 12.8935C10.0754 13.2276 9.91128 13.7287 9.86828 14.6566C9.82138 15.655 9.80965 15.9557 9.80965 18.4944C9.80965 21.0295 9.82138 21.3301 9.86828 22.3323C9.91128 23.2565 10.0754 23.7613 10.2122 24.0953C10.392 24.537 10.607 24.8525 10.9588 25.1866C11.3066 25.5169 11.6428 25.7248 12.1079 25.8955C12.4596 26.0254 12.9873 26.1813 13.9644 26.2221C15.0158 26.2667 15.3324 26.2778 18.0059 26.2778C20.6754 26.2778 20.992 26.2667 22.0473 26.2221C23.0205 26.1813 23.5521 26.0254 23.9038 25.8955C24.369 25.7248 24.7012 25.5206 25.053 25.1866C25.4008 24.8562 25.6197 24.537 25.7995 24.0953C25.9363 23.7613 26.1004 23.2602 26.1434 22.3323C26.1903 21.3339 26.2021 21.0332 26.2021 18.4944C26.2021 15.9594 26.1903 15.6587 26.1434 14.6566C26.1004 13.7324 25.9363 13.2276 25.7995 12.8935C25.6197 12.4518 25.4047 12.1364 25.053 11.8023C24.7051 11.472 24.369 11.2641 23.9038 11.0934C23.5521 10.9635 23.0244 10.8076 22.0473 10.7668Z" fill="white"/>
<path fill-rule="evenodd" clip-rule="evenodd" d="M17.9989 13.4336C15.3275 13.4336 13.1602 15.703 13.1602 18.5003C13.1602 21.2975 15.3275 23.5669 17.9989 23.5669C20.6703 23.5669 22.8376 21.2975 22.8376 18.5003C22.8376 15.703 20.6703 13.4336 17.9989 13.4336ZM14.8601 18.5003C14.8601 20.315 16.2658 21.7869 17.9989 21.7869C19.732 21.7869 21.1376 20.315 21.1376 18.5003C21.1376 16.6855 19.732 15.2137 17.9989 15.2137C16.2658 15.2137 14.8601 16.6855 14.8601 18.5003Z" fill="white"/>
<path d="M24.776 13.4337C24.776 14.1351 24.1959 14.7003 23.4856 14.7003C22.7711 14.7003 22.1953 14.1309 22.1953 13.4337C22.1953 12.7322 22.7753 12.167 23.4856 12.167C24.1959 12.167 24.776 12.7364 24.776 13.4337Z" fill="white"/>
</svg>
