<svg width="36" height="36" viewBox="0 0 36 36" fill="none" xmlns="http://www.w3.org/2000/svg">
<path fill-rule="evenodd" clip-rule="evenodd" d="M0 28V8C0 3.58172 3.58172 0 8 0H28C32.4183 0 36 3.58172 36 8V28C36 32.4183 32.4183 36 28 36H8C3.58172 36 0 32.4183 0 28ZM13.8824 8.55567C14.9494 8.51113 15.2894 8.5 18.0059 8.5C20.7223 8.5 21.0623 8.51114 22.1333 8.55939C23.1964 8.60393 23.9234 8.76724 24.5605 9.00107C25.2171 9.24233 25.776 9.56896 26.3311 10.096C26.89 10.6231 27.23 11.1538 27.4763 11.7848C27.7225 12.3861 27.8945 13.0802 27.9414 14.0898C27.9883 15.103 28 15.426 28 18.0056C28 20.5852 27.9883 20.9081 27.9414 21.9214C27.8945 22.9309 27.7225 23.6213 27.4763 24.2263C27.2222 24.8499 26.8782 25.3806 26.3232 25.9077C25.7682 26.4348 25.2093 26.7614 24.5527 27.0026C23.9195 27.2365 23.1886 27.3998 22.1255 27.4443C21.0584 27.4889 20.7184 27.5 18.002 27.5C15.2855 27.5 14.9455 27.4889 13.8784 27.4443C12.8153 27.3998 12.0883 27.2365 11.4512 27.0026C10.7946 26.7614 10.2357 26.4348 9.68067 25.9077C9.12175 25.3806 8.78171 24.8499 8.52374 24.2226C8.27751 23.6213 8.10553 22.9272 8.05863 21.9177C8.01173 20.9044 8 20.5815 8 18.0019C8 15.4223 8.01173 15.0993 8.05863 14.0823C8.10553 13.0728 8.27751 12.3824 8.52374 11.7774C8.78171 11.1538 9.12175 10.6231 9.68067 10.096C10.2357 9.56525 10.7946 9.24233 11.4551 8.99736C12.0883 8.76353 12.8192 8.60021 13.8824 8.55567Z" fill="#D7D7D7"/>
<path fill-rule="evenodd" clip-rule="evenodd" d="M22.0473 10.2668C20.9959 10.2222 20.6793 10.2111 18.0059 10.2111C15.3324 10.2111 15.0158 10.2222 13.9644 10.2668C12.9912 10.3076 12.4596 10.4635 12.1079 10.5934C11.6428 10.7641 11.3105 10.9683 10.9588 11.3023C10.6109 11.6326 10.392 11.9518 10.2122 12.3935C10.0754 12.7276 9.91128 13.2287 9.86828 14.1566C9.82138 15.155 9.80965 15.4557 9.80965 17.9944C9.80965 20.5295 9.82138 20.8301 9.86828 21.8323C9.91128 22.7565 10.0754 23.2613 10.2122 23.5953C10.392 24.037 10.607 24.3525 10.9588 24.6866C11.3066 25.0169 11.6428 25.2248 12.1079 25.3955C12.4596 25.5254 12.9873 25.6813 13.9644 25.7221C15.0158 25.7667 15.3324 25.7778 18.0059 25.7778C20.6754 25.7778 20.992 25.7667 22.0473 25.7221C23.0205 25.6813 23.5521 25.5254 23.9039 25.3955C24.369 25.2248 24.7012 25.0206 25.053 24.6866C25.4008 24.3562 25.6197 24.037 25.7995 23.5953C25.9363 23.2613 26.1004 22.7602 26.1434 21.8323C26.1903 20.8339 26.2021 20.5332 26.2021 17.9944C26.2021 15.4594 26.1903 15.1587 26.1434 14.1566C26.1004 13.2324 25.9363 12.7276 25.7995 12.3935C25.6197 11.9518 25.4047 11.6364 25.053 11.3023C24.7051 10.972 24.369 10.7641 23.9039 10.5934C23.5521 10.4635 23.0244 10.3076 22.0473 10.2668ZM13.1613 18C13.1613 15.2027 15.3286 12.9333 18 12.9333C20.6714 12.9333 22.8387 15.2027 22.8387 18C22.8387 20.7973 20.6714 23.0667 18 23.0667C15.3286 23.0667 13.1613 20.7973 13.1613 18ZM23.4839 14.2C24.1942 14.2 24.7742 13.6347 24.7742 12.9333C24.7742 12.236 24.1942 11.6667 23.4839 11.6667C22.7736 11.6667 22.1936 12.2319 22.1936 12.9333C22.1936 13.6306 22.7694 14.2 23.4839 14.2Z" fill="#D7D7D7"/>
<path d="M14.8613 18C14.8613 19.8148 16.2669 21.2866 18 21.2866C19.7331 21.2866 21.1387 19.8148 21.1387 18C21.1387 16.1852 19.7331 14.7134 18 14.7134C16.2669 14.7134 14.8613 16.1852 14.8613 18Z" fill="#D7D7D7"/>
</svg>
