<svg width="36" height="36" viewBox="0 0 36 36" fill="none" xmlns="http://www.w3.org/2000/svg">
<path fill-rule="evenodd" clip-rule="evenodd" d="M0 28V8C0 3.58172 3.58172 0 8 0H28C32.4183 0 36 3.58172 36 8V28C36 32.4183 32.4183 36 28 36H8C3.58172 36 0 32.4183 0 28ZM18.8932 24.5C12.06 24.5 8.1624 19.9955 8 12.5H11.4229C11.5353 18.0015 14.0586 20.3318 16.0574 20.8123V12.5H19.2805V17.2447C21.2543 17.0405 23.3277 14.8784 24.0273 12.5H27.2503C26.7132 15.4309 24.4646 17.5931 22.8656 18.482C24.4646 19.2027 27.0256 21.0886 28 24.5H24.4522C23.6901 22.2177 21.7914 20.452 19.2805 20.2117V24.5H18.8932Z" fill="#222223"/>
</svg>
